HIERARCHY
ROOT Hips
{
  OFFSET 2.26061 22.2878 23.7974
  CHANNELS 6 Xposition Yposition Zposition Zrotation Xrotation Yrotation
  JOINT LeftUpLeg
  {
    OFFSET 8.64259 1.95398 -2.38835
    CHANNELS 3 Zrotation Xrotation Yrotation
    JOINT LeftLeg
    {
      OFFSET 43.7702 0 0
      CHANNELS 3 Zrotation Xrotation Yrotation
      JOINT LeftFoot
      {
        OFFSET 40.6238 0 0
        CHANNELS 3 Zrotation Xrotation Yrotation
        JOINT LeftToeBase
        {
          OFFSET 12.7242 0 0
          CHANNELS 3 Zrotation Xrotation Yrotation
          End Site
          {
            OFFSET 0 0 0
          }
        }
      }
    }
  }
  JOINT RightUpLeg
  {
    OFFSET -8.2249 1.95398 -2.59336
    CHANNELS 3 Zrotation Xrotation Yrotation
    JOINT RightLeg
    {
      OFFSET 43.5653 0 0
      CHANNELS 3 Zrotation Xrotation Yrotation
      JOINT RightFoot
      {
        OFFSET 40.6238 0 0
        CHANNELS 3 Zrotation Xrotation Yrotation
        JOINT RightToeBase
        {
          OFFSET 12.7242 0 0
          CHANNELS 3 Zrotation Xrotation Yrotation
          End Site
          {
            OFFSET 0 0 0
          }
        }
      }
    }
  }
  JOINT Spine
  {
    OFFSET 0.165834 0.87714 6.61349
    CHANNELS 3 Zrotation Xrotation Yrotation
    JOINT Spine1
    {
      OFFSET 7.38963 1.71661e-005 0
      CHANNELS 3 Zrotation Xrotation Yrotation
      JOINT Spine2
      {
        OFFSET 11.9445 1.14441e-005 0
        CHANNELS 3 Zrotation Xrotation Yrotation
        JOINT Spine3
        {
          OFFSET 14.7254 4.19617e-005 0
          CHANNELS 3 Zrotation Xrotation Yrotation
          JOINT Spine4
          {
            OFFSET 10.9679 0 0
            CHANNELS 3 Zrotation Xrotation Yrotation
            JOINT RightShoulder
            {
              OFFSET 2.46616 -1.6653 3.69651
              CHANNELS 3 Zrotation Xrotation Yrotation
              JOINT RightArm
              {
                OFFSET 13.0012 0 0
                CHANNELS 3 Zrotation Xrotation Yrotation
                JOINT RightForeArm
                {
                  OFFSET 28.7848 1.52588e-005 0
                  CHANNELS 3 Zrotation Xrotation Yrotation
                  JOINT RightHand
                  {
                    OFFSET 26.5688 1.52588e-005 0
                    CHANNELS 3 Zrotation Xrotation Yrotation
                    End Site
                    {
                      OFFSET 0 0 0
                    }
                  }
                }
              }
            }
            JOINT LeftShoulder
            {
              OFFSET 2.38034 -1.29275 -3.7523
              CHANNELS 3 Zrotation Xrotation Yrotation
              JOINT LeftArm
              {
                OFFSET 16.3182 6.10351e-005 0
                CHANNELS 3 Zrotation Xrotation Yrotation
                JOINT LeftForeArm
                {
                  OFFSET 27.0901 0 0
                  CHANNELS 3 Zrotation Xrotation Yrotation
                  JOINT LeftHand
                  {
                    OFFSET 24.5451 1.52588e-005 0
                    CHANNELS 3 Zrotation Xrotation Yrotation
                    End Site
                    {
                      OFFSET 0 0 0
                    }
                  }
                }
              }
            }
            JOINT Neck
            {
              OFFSET 5.0226 -0.0266342 0
              CHANNELS 3 Zrotation Xrotation Yrotation
              JOINT Head
              {
                OFFSET 6.69363 2.86102e-005 0
                CHANNELS 3 Zrotation Xrotation Yrotation
                End Site
                {
                  OFFSET 0 0 0
                }
              }
            }
          }
        }
      }
    }
  }
}
MOTION
Frames:	13
Frame Time:	0.0416667
11.2771 97.6886 -102.202 -78.6663 -84.7488 -81.0233 -173.179 5.34734 88.4946 -11.5437 1.77573 0.291535 65.346 5.57284 3.28295 21.979 -6.46187 5.08414 171.226 6.67017 84.7497 -12.5256 -18.1257 -2.91993 64.7804 -2.89848 -1.58891 31.7125 0.270762 -3.20236 0.136638 6.95153 -89.8694 12.9705 0.333994 0.220541 1.29959 0.343394 0.205616 -21.2356 0.252276 0.310732 -1.223 0.25227 0.310716 92.995 -52.5563 -95.7773 23.9585 -8.51521 -0.72324 -10.2316 -32.0389 -42.4164 -2.53245 -0.714788 4.12083 -102.417 -55.534 62.6452 -17.0774 15.8784 0.673478 4.22268 13.9734 -34.1929 5.57692 0.658468 6.3782 0.552169 2.0139 4.61368 7.2785 1.38793 -0.564292 
11.261 97.6945 -102.141 -78.2714 -84.5837 -80.574 -172.673 5.47966 88.8135 -11.7055 2.92581 -0.216535 65.6371 5.92991 3.93697 20.9216 -7.51286 5.61351 171.18 6.27817 84.7721 -11.6354 -17.3109 -2.88367 64.6923 -2.87777 -1.5927 31.4322 0.221031 -2.14085 0.19817 6.97127 -89.8981 12.9311 0.442424 0.150204 1.26023 0.448602 0.130577 -21.2753 0.376819 0.276222 -1.26267 0.376823 0.276215 93.3185 -52.1714 -95.356 24.2805 -9.04311 -0.732866 -8.76781 -29.881 -41.8662 -3.62978 -0.688168 2.95052 -103.129 -55.7094 61.7431 -16.7473 15.5869 0.456192 3.72402 13.2548 -33.4931 5.8785 0.540456 4.36899 1.22055 1.95656 4.382 7.10988 1.40239 0.14509 
11.3662 97.6483 -102.179 -77.9239 -84.7541 -80.2579 -172.275 5.74918 88.9291 -12.1577 4.48245 -0.740145 65.4699 6.54145 5.1594 23.4131 -5.77366 7.99643 171.279 6.17128 84.7327 -11.6053 -16.6048 -3.06277 64.7646 -2.8781 -1.57107 31.9402 0.225471 -1.81835 0.218456 7.00351 -89.9099 12.8667 0.476988 0.122787 1.19581 0.481937 0.10167 -21.3399 0.418033 0.260472 -1.32723 0.418033 0.260467 93.5601 -51.9531 -95.0277 24.4845 -9.53139 -0.273259 -9.4012 -28.779 -44.008 -4.02051 -0.702284 3.17793 -103.906 -55.8932 60.7628 -16.5604 14.8715 0.994687 2.91852 11.3669 -33.0894 6.05396 0.431654 2.69181 2.03995 1.79 3.40555 6.70153 1.45722 1.46317 
11.6495 97.6786 -102.363 -79.2344 -85.2488 -81.7739 -172.01 6.58868 88.8696 -14.2618 4.53435 -1.07583 64.133 4.99864 2.97259 32.9635 2.8374 10.2664 171.672 5.9198 84.6099 -11.4827 -15.7923 -3.71591 64.1665 -2.66285 -1.45135 33.1774 0.262212 -1.63044 0.215742 7.05125 -89.9373 12.7713 0.458461 0.0705901 1.10043 0.461127 0.0503401 -21.4353 0.416049 0.205116 -1.42263 0.416063 0.205125 93.5332 -51.2368 -95.1843 24.6474 -10.5629 0.660666 -9.77644 -27.5187 -47.116 -4.40905 -0.776487 4.63848 -105.45 -56.2103 58.8148 -16.5082 13.8281 2.34446 1.02498 7.6104 -32.1895 5.98167 0.311381 1.08974 2.34773 1.3817 2.97743 6.71787 1.14013 1.87223 
12.0182 97.5027 -102.769 -87.5111 -85.2631 -90.8697 -171.526 6.23853 88.3355 -15.1143 4.42032 -1.87537 64.8678 6.87552 5.28865 34.48 4.27193 10.0022 171.974 6.82413 83.8284 -14.0352 -15.747 -4.55467 64.7469 -2.80144 -1.49476 34.8396 0.323321 -1.78878 0.164598 7.1894 -89.8857 12.4948 0.381474 0.184232 0.823909 0.389208 0.167254 -21.7115 0.30846 0.290358 -1.69881 0.308461 0.290356 93.3869 -50.5886 -95.5153 23.9058 -13.0826 0.315049 -11.5358 -27.9026 -50.9921 -7.97456 -0.983517 4.63843 -106.163 -56.302 57.8999 -16.627 13.2692 3.66441 -3.64001 -0.0723724 -29.7817 8.53354 0.200068 -1.32652 2.39113 1.13309 1.07233 7.60299 1.35351 3.73059 
12.6307 97.3473 -103.254 -89.4707 -84.9352 -92.7967 -171.235 7.60954 88.4097 -18.6392 2.83001 -1.90114 66.547 8.113 4.70355 34.5593 4.34297 10.1559 172.415 7.67717 83.6647 -15.2911 -15.7285 -5.04206 64.0642 -2.55026 -1.36558 41.5901 0.39566 -4.77884 0.0869992 7.31576 -89.9307 12.2423 0.205762 0.11534 0.571391 0.210646 0.106156 -21.9638 0.16159 0.171843 -1.95117 0.161589 0.171838 93.7782 -49.7379 -95.0531 21.5495 -17.6667 -2.07914 -12.8268 -28.6122 -56.4483 -11.8821 -1.15341 4.21676 -106.948 -55.9099 56.693 -17.3458 11.022 5.52347 -5.59852 -5.62205 -27.4125 9.22216 0.0654445 -2.80534 2.56584 0.93964 -2.08296 8.79111 1.94813 6.57264 
13.3779 97.055 -103.857 -85.0868 -83.8519 -88.1407 -170.927 10.0898 88.799 -23.1024 1.49235 -1.82019 67.5249 8.80063 4.81565 35.0524 4.79822 10.5916 173.47 9.59374 83.8665 -17.2976 -15.9729 -5.80794 63.8792 -2.56371 -1.39746 49.405 0.115575 -7.96783 -0.0409754 7.45765 -90.0484 11.9587 -0.104265 -0.0856044 0.287776 -0.107923 -0.0809358 -22.2474 -0.073712 -0.112979 -2.23474 -0.0737203 -0.112989 94.6999 -48.5808 -93.7965 16.8087 -23.3194 -7.83562 -14.5466 -28.1883 -62.6738 -11.7776 -1.05639 3.40467 -107.684 -55.6351 55.5981 -17.9453 7.86105 7.53063 -5.90043 -9.93137 -25.1001 8.95625 -0.0463854 -3.91111 2.43989 1.36869 -5.42425 10.5028 3.34819 9.90916 
14.113 96.5266 -104.748 -84.1444 -82.1719 -87.4609 -170.659 12.6038 89.1745 -28.1435 0.987426 -1.80606 67.8978 8.79857 3.89228 36.3597 6.04402 11.8747 175.29 12.8321 83.7417 -22.052 -15.85 -7.14663 65.0825 -3.17398 -1.74469 51.1425 -0.128045 -9.4832 -0.258413 7.68817 -90.129 11.4971 -0.574346 -0.198415 -0.173754 -0.582524 -0.172948 -22.7096 -0.488166 -0.361865 -2.6969 -0.488171 -0.361861 95.9533 -47.4802 -91.9609 9.57751 -28.6745 -17.0657 -16.1569 -25.9934 -69.6085 -10.6218 -0.797016 1.4221 -108.783 -55.6756 54.1558 -17.844 4.02985 10.19 -4.54151 -12.2925 -23.3411 7.02707 -0.0151816 -3.43809 2.24745 2.03716 -7.74758 12.5344 4.85101 12.3992 
14.7683 95.7981 -105.551 -84.2066 -80.1051 -87.4245 -170.193 15.0878 90.4127 -33.5311 1.38684 -1.63906 68.4255 9.00274 3.47748 36.6718 6.34963 12.353 178.231 16.5233 84.0359 -28.1648 -13.7332 -8.78329 66.2598 -3.90998 -2.13008 49.2724 -0.122846 -9.97783 -0.430783 7.93031 -90.1684 11.0125 -0.935562 -0.245595 -0.658176 -0.945471 -0.204187 -23.1953 -0.818506 -0.515441 -3.18268 -0.818497 -0.515435 96.5409 -46.6904 -91.1149 1.79836 -32.1081 -26.9191 -18.669 -23.3124 -76.338 -9.87615 -0.663303 0.32152 -109.172 -55.0863 53.3799 -16.8754 0.912136 13.1103 -3.30556 -14.7915 -21.5852 3.53221 -0.0760181 -4.08857 1.04742 2.78111 -8.84234 15.1593 6.03637 13.0253 
15.36 94.6783 -106.374 -85.0936 -78.0565 -88.6022 -169.775 17.1331 91.9667 -38.4966 0.905149 -1.32436 68.9933 9.1872 2.49339 37.3135 6.9733 12.3511 -178.324 20.2328 83.7286 -34.4839 -10.0481 -10.6608 66.8942 -4.44234 -2.40923 46.3566 0.00303832 -9.79161 -0.554901 8.15861 -90.0373 10.5576 -1.12231 0.0267113 -1.11288 -1.12005 0.0760857 -23.6518 -1.07845 -0.311858 -3.63911 -1.07846 -0.311873 96.708 -46.967 -90.813 -5.75208 -33.7576 -36.1905 -22.3746 -18.7227 -82.5856 -7.809 -0.619115 0.393467 -108.427 -53.9382 53.864 -14.7406 -1.64009 16.1189 -3.21414 -19.1932 -20.1096 7.03287 0.0517642 -2.61821 -1.08215 3.6396 -10.3488 17.933 7.38398 13.9113 
15.7555 93.1654 -107.083 -85.3899 -76.9768 -89.2179 -169.963 19.2061 93.8179 -43.147 0.960413 -0.461132 68.7663 9.19001 2.59077 37.5428 7.23584 13.7652 -175.188 23.156 82.7805 -39.876 -9.19363 -12.2784 66.91 -4.6876 -2.55366 44.7777 0.142095 -8.72891 -0.679615 8.33948 -89.8622 10.1969 -1.29122 0.382536 -1.47345 -1.27313 0.438993 -24.0137 -1.34648 -0.0232861 -4.00105 -1.34649 -0.0232914 95.9621 -46.2788 -92.1049 -8.06467 -32.8104 -41.034 -25.8225 -13.7491 -87.7372 -6.8371 -0.647101 1.18651 -106.463 -53.2726 56.2349 -10.4718 -4.17715 18.8955 -3.72955 -23.8543 -20.711 10.0279 0.228501 -1.47062 -3.30378 4.18115 -11.1361 20.7427 8.42562 15.1387 
15.9874 91.5926 -107.792 -87.7961 -77.6678 -91.9664 -170.796 20.5686 96.0798 -46.4416 1.39862 0.930054 66.5652 8.45329 4.3378 39.5873 9.11221 11.363 -173.998 24.4463 81.7711 -43.9481 -10.0937 -13.4003 68.7745 -5.35733 -2.82418 45.0945 0.481682 -4.2629 -0.812752 8.54209 -89.6527 9.7955 -1.46267 0.806223 -1.87491 -1.42577 0.869814 -24.4163 -1.63735 0.329256 -4.40361 -1.63734 0.329261 95.3064 -45.718 -93.2498 -8.24697 -31.1233 -43.0113 -26.1736 -8.67918 -90.9294 -8.27762 -0.757676 2.25768 -103.68 -51.6991 59.4253 -5.15192 -8.72564 21.3918 -3.43109 -26.1584 -23.609 12.7959 0.281851 -1.56575 -4.66084 3.87371 -11.2299 23.0161 8.22702 14.7404 
16.1514 89.9623 -108.621 -88.7047 -78.1567 -92.1255 -171.697 22.2501 99.8022 -48.609 2.06087 2.49849 66.5079 9.45867 6.06826 37.5713 7.19488 11.3509 -173.734 26.7615 82.1034 -47.9747 -9.00897 -13.0996 70.9426 -6.18945 -3.13402 45.1501 0.613327 -2.60123 -0.73017 8.68147 -89.5721 9.51572 -1.26294 0.944153 -2.15499 -1.22016 0.998814 -24.694 -1.4883 0.520891 -4.68137 -1.48831 0.520883 94.5018 -45.0982 -94.6658 -6.01886 -27.6938 -41.8571 -25.0988 -4.21337 -92.8993 -9.5845 -0.827301 2.66714 -100.718 -49.8847 62.9249 1.63297 -15.6954 22.6914 0.159567 -21.0464 -28.1938 12.3055 0.392682 -0.619394 -6.07918 3.33041 -10.676 25.4633 7.41849 13.0475 
